# xmcd CD database file
#
# Track frame offsets:
#	150
#	17447
#	34780
#	50710
#
# Disc length: 891 seconds
#
# Revision: 0
# Processed by: cddbd v1.4b41PL1 Copyright (c) Steve Scherf et al.
# Submitted via: Feurio! 1.61 - http://www.feurio.com
#
DISCID=29037904
DTITLE=The Mavericks - Here Comes The Rain 
DYEAR=1900
DGENRE=
TTITLE0=Here Comes The Rain
TTITLE1=What A Crying Shame
TTITLE2=The Things You Said To Me
TTITLE3=All That Heaven Will Allow
EXTD=
EXTT0=
EXTT1=
EXTT2=
EXTT3=
PLAYORDER=
